<svg xmlns="http://www.w3.org/2000/svg" viewBox="-500,-500,1000,1000" width="100%" height="1000" style="font: 10px sans-serif; background: none;"><g fill="none" stroke="#a3a3a3" stroke-width="1.5"><path d="M0,0C-9.657,104.555,29.676,-100.719,59.351,-201.438"/><path d="M0,0C-9.657,104.555,93.822,-47.142,187.645,-94.283"/><path d="M0,0C-9.657,104.555,86.741,59.17,173.481,118.339"/><path d="M0,0C-9.657,104.555,-3.223,104.951,-6.446,209.901"/><path d="M0,0C-9.657,104.555,-78.84,69.349,-157.68,138.698"/><path d="M0,0C-9.657,104.555,-100.87,-29.16,-201.739,-58.32"/><path d="M0,0C-9.657,104.555,-89.278,-55.266,-178.557,-110.533"/><path d="M0,0C-9.657,104.555,-71.08,-77.283,-142.16,-154.566"/><path d="M0,0C-9.657,104.555,-47.621,-93.58,-95.242,-187.16"/><path d="M0,0C-9.657,104.555,-35.8,-98.708,-71.6,-197.417"/><path d="M0,0C-9.657,104.555,-23.44,-102.35,-46.879,-204.701"/><path d="M0,0C-9.657,104.555,-10.726,-104.451,-21.452,-208.901"/><path d="M59.351,-201.438C89.027,-302.158,32.178,-313.352,42.904,-417.803"/><path d="M59.351,-201.438C89.027,-302.158,70.319,-307.051,93.758,-409.401"/><path d="M59.351,-201.438C89.027,-302.158,107.4,-296.125,143.2,-394.834"/><path d="M59.351,-201.438C89.027,-302.158,142.863,-280.74,190.485,-374.32"/><path d="M187.645,-94.283C281.467,-141.425,196.939,-245.846,262.585,-327.794"/><path d="M187.645,-94.283C281.467,-141.425,225.569,-219.871,300.759,-293.162"/><path d="M187.645,-94.283C281.467,-141.425,250.803,-190.586,334.404,-254.114"/><path d="M187.645,-94.283C281.467,-141.425,272.259,-158.43,363.012,-211.239"/><path d="M187.645,-94.283C281.467,-141.425,289.615,-123.888,386.153,-165.183"/><path d="M187.645,-94.283C281.467,-141.425,302.609,-87.48,403.479,-116.64"/><path d="M187.645,-94.283C281.467,-141.425,311.046,-49.754,414.728,-66.339"/><path d="M187.645,-94.283C281.467,-141.425,314.798,-11.28,419.731,-15.04"/><path d="M173.481,118.339C260.222,177.509,310.52,52.935,414.027,70.58"/><path d="M173.481,118.339C260.222,177.509,301.698,90.572,402.264,120.762"/><path d="M173.481,118.339C260.222,177.509,288.332,126.845,384.443,169.126"/><path d="M173.481,118.339C260.222,177.509,270.624,161.207,360.832,214.943"/><path d="M173.481,118.339C260.222,177.509,248.84,193.142,331.786,257.523"/><path d="M173.481,118.339C260.222,177.509,223.308,222.168,297.744,296.224"/><path d="M173.481,118.339C260.222,177.509,194.413,247.848,259.217,330.464"/><path d="M173.481,118.339C260.222,177.509,162.59,269.795,216.787,359.727"/><path d="M-6.446,209.901C-9.669,314.852,104.364,297.209,139.152,396.279"/><path d="M-6.446,209.901C-9.669,314.852,67.173,307.754,89.564,410.339"/><path d="M-6.446,209.901C-9.669,314.852,28.97,313.665,38.627,418.22"/><path d="M-6.446,209.901C-9.669,314.852,-9.669,314.852,-12.892,419.802"/><path d="M-6.446,209.901C-9.669,314.852,-48.162,311.296,-64.216,415.062"/><path d="M-6.446,209.901C-9.669,314.852,-85.93,303.053,-114.574,404.07"/><path d="M-6.446,209.901C-9.669,314.852,-122.404,290.245,-163.205,386.994"/><path d="M-157.68,138.698C-236.519,208.047,-178.838,259.31,-238.451,345.747"/><path d="M-157.68,138.698C-236.519,208.047,-209.255,235.452,-279.006,313.936"/><path d="M-157.68,138.698C-236.519,208.047,-236.519,208.047,-315.359,277.396"/><path d="M-157.68,138.698C-236.519,208.047,-260.222,177.509,-346.963,236.679"/><path d="M-157.68,138.698C-236.519,208.047,-280.006,144.298,-373.341,192.397"/><path d="M-201.739,-58.32C-302.609,-87.48,-303.488,84.379,-404.651,112.505"/><path d="M-201.739,-58.32C-302.609,-87.48,-311.539,46.569,-415.385,62.092"/><path d="M-201.739,-58.32C-302.609,-87.48,-314.897,8.058,-419.863,10.744"/><path d="M-201.739,-58.32C-302.609,-87.48,-313.513,-30.575,-418.017,-40.766"/><path d="M-201.739,-58.32C-302.609,-87.48,-307.407,-68.747,-409.876,-91.662"/><path d="M-201.739,-58.32C-302.609,-87.48,-296.671,-105.883,-395.562,-141.178"/><path d="M-201.739,-58.32C-302.609,-87.48,-281.467,-141.425,-375.29,-188.567"/><path d="M-201.739,-58.32C-302.609,-87.48,-262.025,-174.837,-349.366,-233.116"/><path d="M-201.739,-58.32C-302.609,-87.48,-238.636,-205.616,-318.181,-274.155"/><path d="M-201.739,-58.32C-302.609,-87.48,-211.653,-233.298,-282.204,-311.064"/><path d="M-95.242,-187.16C-142.863,-280.74,-159.821,-271.445,-213.094,-361.927"/><path d="M-95.242,-187.16C-142.863,-280.74,-125.368,-288.977,-167.157,-385.303"/></g><g><circle transform="rotate(95.27687296416937) translate(0,0)" r="2.5" fill="#999"/><circle transform="rotate(-73.58306188925081) translate(210,0)" r="2.5" fill="#999"/><circle transform="rotate(-26.677524429967434) translate(210,0)" r="2.5" fill="#999"/><circle transform="rotate(34.29967426710098) translate(210,0)" r="2.5" fill="#999"/><circle transform="rotate(91.75895765472313) translate(210,0)" r="2.5" fill="#999"/><circle transform="rotate(138.6644951140065) translate(210,0)" r="2.5" fill="#999"/><circle transform="rotate(196.1237785016287) translate(210,0)" r="2.5" fill="#999"/><circle transform="rotate(211.7589576547232) translate(210,0)" r="2.5" fill="#999"/><circle transform="rotate(227.39413680781757) translate(210,0)" r="2.5" fill="#999"/><circle transform="rotate(243.02931596091207) translate(210,0)" r="2.5" fill="#999"/><circle transform="rotate(250.06514657980455) translate(210,0)" r="2.5" fill="#999"/><circle transform="rotate(257.1009771986971) translate(210,0)" r="2.5" fill="#999"/><circle transform="rotate(264.1368078175896) translate(210,0)" r="2.5" fill="#999"/><circle transform="rotate(-84.13680781758957) translate(420,0)" r="2.5" fill="#999"/><circle transform="rotate(-77.10097719869707) translate(420,0)" r="2.5" fill="#999"/><circle transform="rotate(-70.06514657980456) translate(420,0)" r="2.5" fill="#999"/><circle transform="rotate(-63.02931596091205) translate(420,0)" r="2.5" fill="#999"/><circle transform="rotate(-51.3029315960912) translate(420,0)" r="2.5" fill="#999"/><circle transform="rotate(-44.2671009771987) translate(420,0)" r="2.5" fill="#999"/><circle transform="rotate(-37.23127035830619) translate(420,0)" r="2.5" fill="#999"/><circle transform="rotate(-30.195439739413686) translate(420,0)" r="2.5" fill="#999"/><circle transform="rotate(-23.159609120521168) translate(420,0)" r="2.5" fill="#999"/><circle transform="rotate(-16.123778501628664) translate(420,0)" r="2.5" fill="#999"/><circle transform="rotate(-9.08794788273616) translate(420,0)" r="2.5" fill="#999"/><circle transform="rotate(-2.0521172638436553) translate(420,0)" r="2.5" fill="#999"/><circle transform="rotate(9.674267100977204) translate(420,0)" r="2.5" fill="#999"/><circle transform="rotate(16.710097719869694) translate(420,0)" r="2.5" fill="#999"/><circle transform="rotate(23.745928338762212) translate(420,0)" r="2.5" fill="#999"/><circle transform="rotate(30.781758957654745) translate(420,0)" r="2.5" fill="#999"/><circle transform="rotate(37.817589576547235) translate(420,0)" r="2.5" fill="#999"/><circle transform="rotate(44.853420195439725) translate(420,0)" r="2.5" fill="#999"/><circle transform="rotate(51.88925081433226) translate(420,0)" r="2.5" fill="#999"/><circle transform="rotate(58.92508143322476) translate(420,0)" r="2.5" fill="#999"/><circle transform="rotate(70.65146579804559) translate(420,0)" r="2.5" fill="#999"/><circle transform="rotate(77.68729641693812) translate(420,0)" r="2.5" fill="#999"/><circle transform="rotate(84.72312703583063) translate(420,0)" r="2.5" fill="#999"/><circle transform="rotate(91.75895765472313) translate(420,0)" r="2.5" fill="#999"/><circle transform="rotate(98.79478827361561) translate(420,0)" r="2.5" fill="#999"/><circle transform="rotate(105.83061889250817) translate(420,0)" r="2.5" fill="#999"/><circle transform="rotate(112.86644951140065) translate(420,0)" r="2.5" fill="#999"/><circle transform="rotate(124.59283387622153) translate(420,0)" r="2.5" fill="#999"/><circle transform="rotate(131.628664495114) translate(420,0)" r="2.5" fill="#999"/><circle transform="rotate(138.6644951140065) translate(420,0)" r="2.5" fill="#999"/><circle transform="rotate(145.70032573289902) translate(420,0)" r="2.5" fill="#999"/><circle transform="rotate(152.7361563517915) translate(420,0)" r="2.5" fill="#999"/><circle transform="rotate(164.46254071661238) translate(420,0)" r="2.5" fill="#999"/><circle transform="rotate(171.49837133550488) translate(420,0)" r="2.5" fill="#999"/><circle transform="rotate(178.53420195439736) translate(420,0)" r="2.5" fill="#999"/><circle transform="rotate(185.57003257328995) translate(420,0)" r="2.5" fill="#999"/><circle transform="rotate(192.60586319218243) translate(420,0)" r="2.5" fill="#999"/><circle transform="rotate(199.6416938110749) translate(420,0)" r="2.5" fill="#999"/><circle transform="rotate(206.67752442996743) translate(420,0)" r="2.5" fill="#999"/><circle transform="rotate(213.71335504885997) translate(420,0)" r="2.5" fill="#999"/><circle transform="rotate(220.74918566775244) translate(420,0)" r="2.5" fill="#999"/><circle transform="rotate(227.78501628664492) translate(420,0)" r="2.5" fill="#999"/><circle transform="rotate(239.51140065146575) translate(420,0)" r="2.5" fill="#999"/><circle transform="rotate(246.54723127035834) translate(420,0)" r="2.5" fill="#999"/></g><g stroke-linejoin="round" stroke-width="3"><text transform="rotate(95.27687296416937) translate(0,0) rotate(180)" dy="0.31em" x="6" text-anchor="start" paint-order="stroke" stroke="white" fill="#000" font-size="13" font-weight="bold" style="opacity: 1;">Taxonomy</text><text transform="rotate(-73.58306188925081) translate(210,0) rotate(0)" dy="0.31em" x="-6" text-anchor="end" paint-order="stroke" stroke="white" fill="#6366f1" font-size="13" font-weight="bold" style="opacity: 1;">1 Interaction Paradigms</text><text transform="rotate(-26.677524429967434) translate(210,0) rotate(0)" dy="0.31em" x="-6" text-anchor="end" paint-order="stroke" stroke="white" fill="#3b82f6" font-size="13" font-weight="bold" style="opacity: 1;">2 Comparison Dimensions</text><text transform="rotate(34.29967426710098) translate(210,0) rotate(0)" dy="0.31em" x="-6" text-anchor="end" paint-order="stroke" stroke="white" fill="#0ea5e9" font-size="13" font-weight="bold" style="opacity: 1;">3 Approach Class</text><text transform="rotate(91.75895765472313) translate(210,0) rotate(180)" dy="0.31em" x="6" text-anchor="start" paint-order="stroke" stroke="white" fill="#06b6d4" font-size="13" font-weight="bold" style="opacity: 1;">4 Guidance Strategy</text><text transform="rotate(138.6644951140065) translate(210,0) rotate(180)" dy="0.31em" x="6" text-anchor="start" paint-order="stroke" stroke="white" fill="#14b8a6" font-size="13" font-weight="bold" style="opacity: 1;">5 Backend Type</text><text transform="rotate(196.1237785016287) translate(210,0) rotate(180)" dy="0.31em" x="6" text-anchor="start" paint-order="stroke" stroke="white" fill="#22c55e" font-size="13" font-weight="bold" style="opacity: 1;">6 Evidence</text><text transform="rotate(211.7589576547232) translate(210,0) rotate(180)" dy="0.31em" x="-6" text-anchor="end" paint-order="stroke" stroke="white" fill="#84cc16" font-size="13" font-weight="bold" style="opacity: 1;">7 Availability</text><text transform="rotate(227.39413680781757) translate(210,0) rotate(180)" dy="0.31em" x="-6" text-anchor="end" paint-order="stroke" stroke="white" fill="#facc15" font-size="13" font-weight="bold" style="opacity: 1;">8 License</text><text transform="rotate(243.02931596091207) translate(210,0) rotate(180)" dy="0.31em" x="6" text-anchor="start" paint-order="stroke" stroke="white" fill="#fbbf24" font-size="13" font-weight="bold" style="opacity: 1;">9 Data Access</text><text transform="rotate(250.06514657980455) translate(210,0) rotate(180)" dy="0.31em" x="-6" text-anchor="end" paint-order="stroke" stroke="white" fill="#f59e42" font-size="13" font-weight="bold" style="opacity: 1;">10 Output</text><text transform="rotate(257.1009771986971) translate(210,0) rotate(180)" dy="0.31em" x="-6" text-anchor="end" paint-order="stroke" stroke="white" fill="#ef4444" font-size="13" font-weight="bold" style="opacity: 1;">11 Primary Goal</text><text transform="rotate(264.1368078175896) translate(210,0) rotate(180)" dy="0.31em" x="-6" text-anchor="end" paint-order="stroke" stroke="white" fill="#f43f5e" font-size="13" font-weight="bold" style="opacity: 1;">12 User Interaction</text><text transform="rotate(-84.13680781758957) translate(420,0) rotate(0)" dy="0.31em" x="6" text-anchor="start" paint-order="stroke" stroke="white" fill="#6366f1" font-size="13" font-weight="bold" style="opacity: 1;">Facets</text><text transform="rotate(-77.10097719869707) translate(420,0) rotate(0)" dy="0.31em" x="6" text-anchor="start" paint-order="stroke" stroke="white" fill="#6366f1" font-size="13" font-weight="bold" style="opacity: 1;">Navigation</text><text transform="rotate(-70.06514657980456) translate(420,0) rotate(0)" dy="0.31em" x="6" text-anchor="start" paint-order="stroke" stroke="white" fill="#6366f1" font-size="13" font-weight="bold" style="opacity: 1;">Query Building</text><text transform="rotate(-63.02931596091205) translate(420,0) rotate(0)" dy="0.31em" x="6" text-anchor="start" paint-order="stroke" stroke="white" fill="#6366f1" font-size="13" font-weight="bold" style="opacity: 1;">Guidance/Visualization</text><text transform="rotate(-51.3029315960912) translate(420,0) rotate(0)" dy="0.31em" x="6" text-anchor="start" paint-order="stroke" stroke="white" fill="#3b82f6" font-size="13" font-weight="bold" style="opacity: 1;">Guidance</text><text transform="rotate(-44.2671009771987) translate(420,0) rotate(0)" dy="0.31em" x="6" text-anchor="start" paint-order="stroke" stroke="white" fill="#3b82f6" font-size="13" font-weight="bold" style="opacity: 1;">Backend &amp; Assumptions</text><text transform="rotate(-37.23127035830619) translate(420,0) rotate(0)" dy="0.31em" x="6" text-anchor="start" paint-order="stroke" stroke="white" fill="#3b82f6" font-size="13" font-weight="bold" style="opacity: 1;">Evidence</text><text transform="rotate(-30.195439739413686) translate(420,0) rotate(0)" dy="0.31em" x="6" text-anchor="start" paint-order="stroke" stroke="white" fill="#3b82f6" font-size="13" font-weight="bold" style="opacity: 1;">Availability</text><text transform="rotate(-23.159609120521168) translate(420,0) rotate(0)" dy="0.31em" x="6" text-anchor="start" paint-order="stroke" stroke="white" fill="#3b82f6" font-size="13" font-weight="bold" style="opacity: 1;">Visualization</text><text transform="rotate(-16.123778501628664) translate(420,0) rotate(0)" dy="0.31em" x="6" text-anchor="start" paint-order="stroke" stroke="white" fill="#3b82f6" font-size="13" font-weight="bold" style="opacity: 1;">Data Access</text><text transform="rotate(-9.08794788273616) translate(420,0) rotate(0)" dy="0.31em" x="6" text-anchor="start" paint-order="stroke" stroke="white" fill="#3b82f6" font-size="13" font-weight="bold" style="opacity: 1;">Data Sources</text><text transform="rotate(-2.0521172638436553) translate(420,0) rotate(0)" dy="0.31em" x="6" text-anchor="start" paint-order="stroke" stroke="white" fill="#3b82f6" font-size="13" font-weight="bold" style="opacity: 1;">Notes</text><text transform="rotate(9.674267100977204) translate(420,0) rotate(0)" dy="0.31em" x="6" text-anchor="start" paint-order="stroke" stroke="white" fill="#0ea5e9" font-size="13" font-weight="bold" style="opacity: 1;">Browser</text><text transform="rotate(16.710097719869694) translate(420,0) rotate(0)" dy="0.31em" x="6" text-anchor="start" paint-order="stroke" stroke="white" fill="#0ea5e9" font-size="13" font-weight="bold" style="opacity: 1;">Query Builder</text><text transform="rotate(23.745928338762212) translate(420,0) rotate(0)" dy="0.31em" x="6" text-anchor="start" paint-order="stroke" stroke="white" fill="#0ea5e9" font-size="13" font-weight="bold" style="opacity: 1;">Recommendation</text><text transform="rotate(30.781758957654745) translate(420,0) rotate(0)" dy="0.31em" x="6" text-anchor="start" paint-order="stroke" stroke="white" fill="#0ea5e9" font-size="13" font-weight="bold" style="opacity: 1;">Framework</text><text transform="rotate(37.817589576547235) translate(420,0) rotate(0)" dy="0.31em" x="6" text-anchor="start" paint-order="stroke" stroke="white" fill="#0ea5e9" font-size="13" font-weight="bold" style="opacity: 1;">Visualization</text><text transform="rotate(44.853420195439725) translate(420,0) rotate(0)" dy="0.31em" x="6" text-anchor="start" paint-order="stroke" stroke="white" fill="#0ea5e9" font-size="13" font-weight="bold" style="opacity: 1;">Study</text><text transform="rotate(51.88925081433226) translate(420,0) rotate(0)" dy="0.31em" x="6" text-anchor="start" paint-order="stroke" stroke="white" fill="#0ea5e9" font-size="13" font-weight="bold" style="opacity: 1;">Discovery</text><text transform="rotate(58.92508143322476) translate(420,0) rotate(0)" dy="0.31em" x="6" text-anchor="start" paint-order="stroke" stroke="white" fill="#0ea5e9" font-size="13" font-weight="bold" style="opacity: 1;">Other</text><text transform="rotate(70.65146579804559) translate(420,0) rotate(0)" dy="0.31em" x="6" text-anchor="start" paint-order="stroke" stroke="white" fill="#06b6d4" font-size="13" font-weight="bold" style="opacity: 1;">Implicit</text><text transform="rotate(77.68729641693812) translate(420,0) rotate(0)" dy="0.31em" x="6" text-anchor="start" paint-order="stroke" stroke="white" fill="#06b6d4" font-size="13" font-weight="bold" style="opacity: 1;">Constraint-based</text><text transform="rotate(84.72312703583063) translate(420,0) rotate(0)" dy="0.31em" x="6" text-anchor="start" paint-order="stroke" stroke="white" fill="#06b6d4" font-size="13" font-weight="bold" style="opacity: 1;">Ranked</text><text transform="rotate(91.75895765472313) translate(420,0) rotate(180)" dy="0.31em" x="-6" text-anchor="end" paint-order="stroke" stroke="white" fill="#06b6d4" font-size="13" font-weight="bold" style="opacity: 1;">Personalized</text><text transform="rotate(98.79478827361561) translate(420,0) rotate(180)" dy="0.31em" x="-6" text-anchor="end" paint-order="stroke" stroke="white" fill="#06b6d4" font-size="13" font-weight="bold" style="opacity: 1;">NL-based</text><text transform="rotate(105.83061889250817) translate(420,0) rotate(180)" dy="0.31em" x="-6" text-anchor="end" paint-order="stroke" stroke="white" fill="#06b6d4" font-size="13" font-weight="bold" style="opacity: 1;">Config-driven</text><text transform="rotate(112.86644951140065) translate(420,0) rotate(180)" dy="0.31em" x="-6" text-anchor="end" paint-order="stroke" stroke="white" fill="#06b6d4" font-size="13" font-weight="bold" style="opacity: 1;">Other</text><text transform="rotate(124.59283387622153) translate(420,0) rotate(180)" dy="0.31em" x="-6" text-anchor="end" paint-order="stroke" stroke="white" fill="#14b8a6" font-size="13" font-weight="bold" style="opacity: 1;">RDF/SPARQL</text><text transform="rotate(131.628664495114) translate(420,0) rotate(180)" dy="0.31em" x="-6" text-anchor="end" paint-order="stroke" stroke="white" fill="#14b8a6" font-size="13" font-weight="bold" style="opacity: 1;">Property Graph</text><text transform="rotate(138.6644951140065) translate(420,0) rotate(180)" dy="0.31em" x="-6" text-anchor="end" paint-order="stroke" stroke="white" fill="#14b8a6" font-size="13" font-weight="bold" style="opacity: 1;">Graph DB</text><text transform="rotate(145.70032573289902) translate(420,0) rotate(180)" dy="0.31em" x="-6" text-anchor="end" paint-order="stroke" stroke="white" fill="#14b8a6" font-size="13" font-weight="bold" style="opacity: 1;">Local Index</text><text transform="rotate(152.7361563517915) translate(420,0) rotate(180)" dy="0.31em" x="-6" text-anchor="end" paint-order="stroke" stroke="white" fill="#14b8a6" font-size="13" font-weight="bold" style="opacity: 1;">Other/Hybrid</text><text transform="rotate(164.46254071661238) translate(420,0) rotate(180)" dy="0.31em" x="-6" text-anchor="end" paint-order="stroke" stroke="white" fill="#22c55e" font-size="13" font-weight="bold" style="opacity: 1;">User Study</text><text transform="rotate(171.49837133550488) translate(420,0) rotate(180)" dy="0.31em" x="-6" text-anchor="end" paint-order="stroke" stroke="white" fill="#22c55e" font-size="13" font-weight="bold" style="opacity: 1;">Experiment</text><text transform="rotate(178.53420195439736) translate(420,0) rotate(180)" dy="0.31em" x="-6" text-anchor="end" paint-order="stroke" stroke="white" fill="#22c55e" font-size="13" font-weight="bold" style="opacity: 1;">Deployment</text><text transform="rotate(185.57003257328995) translate(420,0) rotate(180)" dy="0.31em" x="-6" text-anchor="end" paint-order="stroke" stroke="white" fill="#22c55e" font-size="13" font-weight="bold" style="opacity: 1;">Tool Paper</text><text transform="rotate(192.60586319218243) translate(420,0) rotate(180)" dy="0.31em" x="-6" text-anchor="end" paint-order="stroke" stroke="white" fill="#22c55e" font-size="13" font-weight="bold" style="opacity: 1;">Prototype/Demo</text><text transform="rotate(199.6416938110749) translate(420,0) rotate(180)" dy="0.31em" x="-6" text-anchor="end" paint-order="stroke" stroke="white" fill="#22c55e" font-size="13" font-weight="bold" style="opacity: 1;">Offline/Crowd</text><text transform="rotate(206.67752442996743) translate(420,0) rotate(180)" dy="0.31em" x="-6" text-anchor="end" paint-order="stroke" stroke="white" fill="#22c55e" font-size="13" font-weight="bold" style="opacity: 1;">System</text><text transform="rotate(213.71335504885997) translate(420,0) rotate(180)" dy="0.31em" x="-6" text-anchor="end" paint-order="stroke" stroke="white" fill="#22c55e" font-size="13" font-weight="bold" style="opacity: 1;">Comparison</text><text transform="rotate(220.74918566775244) translate(420,0) rotate(180)" dy="0.31em" x="-6" text-anchor="end" paint-order="stroke" stroke="white" fill="#22c55e" font-size="13" font-weight="bold" style="opacity: 1;">Implementation</text><text transform="rotate(227.78501628664492) translate(420,0) rotate(180)" dy="0.31em" x="-6" text-anchor="end" paint-order="stroke" stroke="white" fill="#22c55e" font-size="13" font-weight="bold" style="opacity: 1;">Other</text><text transform="rotate(239.51140065146575) translate(420,0) rotate(180)" dy="0.31em" x="-6" text-anchor="end" paint-order="stroke" stroke="white" fill="#fbbf24" font-size="13" font-weight="bold" style="opacity: 1;">Access Method</text><text transform="rotate(246.54723127035834) translate(420,0) rotate(180)" dy="0.31em" x="-6" text-anchor="end" paint-order="stroke" stroke="white" fill="#fbbf24" font-size="13" font-weight="bold" style="opacity: 1;">Data Sources</text></g></svg>